<?xml version="1.0" encoding="UTF-8"?>
<svg version="1.1" xmlns="http://www.w3.org/2000/svg" width="500" height="365">
<path d="M0 0 C0 0.66 0 1.32 0 2 C0.763125 2.28875 1.52625 2.5775 2.3125 2.875 C5 4 5 4 8 6 C8 6.66 8 7.32 8 8 C8.804375 8.3403125 8.804375 8.3403125 9.625 8.6875 C15.80819282 12.10452761 20.28928558 17.03917152 24 23 C24 23.66 24 24.32 24 25 C24.66 25 25.32 25 26 25 C38.75706736 41.90966114 41.69857202 62.46849374 41.0625 82.9375 C40.37911331 99.96534284 40.37911331 99.96534284 46.5 115.625 C47.00789062 116.4396875 47.51578125 117.254375 48.0390625 118.09375 C49.59732654 120.40320905 51.19420667 122.65683051 52.8359375 124.90625 C53.58520508 125.94918213 53.58520508 125.94918213 54.34960938 127.01318359 C55.34656367 128.39341001 56.36035165 129.76167268 57.39257812 131.11572266 C60.89047702 135.95738561 61.71008817 139.02765126 61 145 C57.74516144 149.77376323 53.50199861 151.1875057 48.20703125 152.91015625 C45.91563341 153.8439574 45.91563341 153.8439574 44.60546875 155.77734375 C43.78102612 158.80384605 44.4961705 160.5532747 45.5 163.5 C47.19863014 168.48630137 47.19863014 168.48630137 46.09375 171.34375 C45.55234375 172.16359375 45.55234375 172.16359375 45 173 C44.34 173 43.68 173 43 173 C43 173.66 43 174.32 43 175 C42.34 175 41.68 175 41 175 C41.61875 176.7634375 41.61875 176.7634375 42.25 178.5625 C43.170977 182.10132259 42.97288095 183.84051124 41.125 187 C40.42375 187.99 39.7225 188.98 39 190 C38.34 190 37.68 190 37 190 C35.97495873 193.33734367 35.9589065 196.2728615 36.0625 199.75 C36.09428503 206.27387707 35.96558398 211.4728206 31.8125 216.8125 C25.75618965 221.52296361 20.58032648 222.4778492 13.125 222.3125 C12.3014502 222.30484619 11.47790039 222.29719238 10.62939453 222.28930664 C4.26443949 222.17175293 -1.95681445 221.49319453 -8.26025391 220.65283203 C-15.61569771 219.70946606 -21.75708336 219.51353097 -28 224 C-35.96153986 235.71062477 -37.9157704 253.46611999 -35.64257812 267.15185547 C-33.97816987 275.55711715 -31.64226587 283.85301357 -29 292 C-31 293 -31 293 -34.52734375 291.9609375 C-36.00072874 291.44165317 -37.47061124 290.91236107 -38.9375 290.375 C-39.70876221 290.09720703 -40.48002441 289.81941406 -41.2746582 289.53320312 C-47.33294904 287.31843948 -53.17010501 284.75795614 -59 282 C-88.41657686 268.18252312 -122.3535674 259.12846793 -155 263 C-154.44016646 259.03917768 -153.29012102 256.62994053 -151 253.375 C-141.34994517 238.60207655 -132.42328056 219.9470956 -132 202 C-131.94972656 200.72640625 -131.89945313 199.4528125 -131.84765625 198.140625 C-131.37682249 181.35957807 -135.21742957 168.40828805 -145.046875 154.75390625 C-157.18771109 137.63532736 -165.98081149 120.7359407 -170 100 C-170.185625 99.24847656 -170.37125 98.49695313 -170.5625 97.72265625 C-174.56212581 72.8321278 -167.03141037 49.92635242 -154 29 C-153.58363281 28.31421875 -153.16726562 27.6284375 -152.73828125 26.921875 C-151.6875 25.25 -151.6875 25.25 -150 23 C-149.34 23 -148.68 23 -148 23 C-147.7628125 22.43796875 -147.525625 21.8759375 -147.28125 21.296875 C-145.71052303 18.48105958 -143.78528536 16.52044584 -141.5 14.25 C-140.7059375 13.45078125 -139.911875 12.6515625 -139.09375 11.828125 C-137 10 -137 10 -135 10 C-135 9.34 -135 8.68 -135 8 C-133.35 7.34 -131.7 6.68 -130 6 C-130 5.34 -130 4.68 -130 4 C-88.98058123 -20.56177963 -42.26926716 -22.96947315 0 0 Z M-64 12 C-75.94675328 25.25504326 -84.60335776 39.60190208 -85 58 C-84.67 58.66 -84.34 59.32 -84 60 C-84.99 60 -85.98 60 -87 60 C-87.25523437 59.401875 -87.51046875 58.80375 -87.7734375 58.1875 C-92.774298 49.26876789 -106.79906055 44.72573032 -116 42 C-118.32752323 41.62825926 -120.66043009 41.28630089 -123 41 C-123.65632968 58.95790918 -121.18577799 72.81944551 -113 89 C-117 87.66666667 -121 86.33333333 -125 85 C-126.77313851 84.91790208 -128.54920775 84.89253706 -130.32421875 84.90234375 C-131.35224609 84.90556641 -132.38027344 84.90878906 -133.43945312 84.91210938 C-135.04723633 84.92467773 -135.04723633 84.92467773 -136.6875 84.9375 C-138.31268555 84.94426758 -138.31268555 84.94426758 -139.97070312 84.95117188 C-142.64715894 84.96296243 -145.32358639 84.98089792 -148 85 C-146.68 88.63 -145.36 92.26 -144 96 C-143.34 96 -142.68 96 -142 96 C-141.91621094 96.54527344 -141.83242187 97.09054688 -141.74609375 97.65234375 C-140.74953827 100.78810208 -139.03693655 102.93824889 -137.0625 105.5625 C-134.97988335 108.3481415 -132.92961929 111.10557106 -131 114 C-130.34 114 -129.68 114 -129 114 C-129 114.66 -129 115.32 -129 116 C-128.34 116 -127.68 116 -127 116 C-127 116.66 -127 117.32 -127 118 C-114.36658072 129.32159696 -97.94256017 132.3378875 -81.55859375 131.91015625 C-77.16860658 131.59057864 -73.04424423 131.09713439 -68.8125 129.875 C-63.25908819 128.60044647 -58.37585626 129.20804791 -53 131 C-34.1760046 132.96310497 -17.65575709 131.77862602 -2 120 C0.51810563 117.82407597 2.9601715 115.6385495 5 113 C5 112.34 5 111.68 5 111 C5.66 111 6.32 111 7 111 C8.53722845 108.90405394 9.93807988 106.82474938 11.3125 104.625 C11.91372681 103.67512207 11.91372681 103.67512207 12.52709961 102.70605469 C18.34114574 94.37361984 18.34114574 94.37361984 21 85 C8.97163872 84.55646377 -1.7080559 84.30724401 -13 89 C-12.60167969 88.20078125 -12.20335937 87.4015625 -11.79296875 86.578125 C-8.21430371 79.1595785 -5.64860896 72.06513734 -4 64 C-3.81179688 63.24332031 -3.62359375 62.48664063 -3.4296875 61.70703125 C-2.81906301 57.86009698 -2.89513631 54.07518333 -2.9375 50.1875 C-2.94426758 49.00510742 -2.94426758 49.00510742 -2.95117188 47.79882812 C-2.96288688 45.86585239 -2.98082002 43.93291607 -3 42 C-8.35654625 41.71082912 -12.48715084 42.55701505 -17.375 44.625 C-18.02839355 44.89425293 -18.68178711 45.16350586 -19.35498047 45.44091797 C-24.67715497 47.70755056 -29.39919074 50.48231862 -34 54 C-35.010625 54.7425 -36.02125 55.485 -37.0625 56.25 C-38.0215625 57.11625 -38.0215625 57.11625 -39 58 C-39 58.66 -39 59.32 -39 60 C-39.99 60 -40.98 60 -42 60 C-41.83113281 59.4225 -41.66226563 58.845 -41.48828125 58.25 C-39.21840981 47.7904324 -45.18326521 35.57885026 -50.21875 26.75390625 C-55.71722919 17.73538153 -55.71722919 17.73538153 -64 12 Z " fill="#A3BFF4" transform="translate(312,57)"/>
<path d="M0 0 C0.66 0 1.32 0 2 0 C2 0.66 2 1.32 2 2 C2.66 2 3.32 2 4 2 C5.74645846 4.46840783 7.35735549 6.92798989 8.9375 9.5 C9.60168945 10.54414062 9.60168945 10.54414062 10.27929688 11.609375 C14.17451027 17.87886899 17.18191938 24.03987712 17.6875 31.5 C17.75195312 32.42425781 17.81640625 33.34851563 17.8828125 34.30078125 C18.03802965 37.87594965 18.06750801 41.42207538 18 45 C18.66 45 19.32 45 20 45 C20.20625 44.46375 20.4125 43.9275 20.625 43.375 C22.53250426 40.08021991 25.04819384 37.40636372 28 35 C28.66 35 29.32 35 30 35 C30 34.34 30 33.68 30 33 C31.72718516 32.03810003 33.45684058 31.08063492 35.1875 30.125 C36.15042969 29.59132813 37.11335938 29.05765625 38.10546875 28.5078125 C42.36850903 26.28711945 45.13790366 25 50 25 C53.28203714 34.84611141 49.78434676 46.94707227 45.5625 56.125 C39.20076056 66.89102059 29.28792249 74.11122647 19.04296875 80.89453125 C16.79555793 82.44954336 14.79590963 83.98833107 12.73828125 85.76171875 C10 88 10 88 8 88 C8 88.66 8 89.32 8 90 C5.75579971 92.24420029 4.26725018 92.95352171 1.125 93.5 C-3.24467689 92.8008517 -4.88788069 91.11211931 -8 88 C-8 87.34 -8 86.68 -8 86 C-9.65 85.34 -11.3 84.68 -13 84 C-13 83.34 -13 82.68 -13 82 C-13.66257813 81.78601563 -14.32515625 81.57203125 -15.0078125 81.3515625 C-19.04085752 79.52984765 -22.35549898 77.03630563 -25.875 74.375 C-26.58881836 73.83665527 -27.30263672 73.29831055 -28.03808594 72.74365234 C-32.966023 68.95545635 -37.38031906 65.09667718 -41 60 C-42.00546875 58.60394531 -42.00546875 58.60394531 -43.03125 57.1796875 C-48.96824741 47.5909655 -49.59975365 36.96216398 -49 26 C-44.20981749 24.42131462 -41.5960295 25.75550055 -37.1875 27.9375 C-36.02605469 28.50339844 -34.86460937 29.06929687 -33.66796875 29.65234375 C-32.78753906 30.09707031 -31.90710938 30.54179688 -31 31 C-31 31.66 -31 32.32 -31 33 C-29.35 33.66 -27.7 34.32 -26 35 C-26 35.66 -26 36.32 -26 37 C-25.11054688 37.38285156 -25.11054688 37.38285156 -24.203125 37.7734375 C-21.78775462 39.11816498 -20.48788294 40.49214367 -18.75 42.625 C-18.22921875 43.25664062 -17.7084375 43.88828125 -17.171875 44.5390625 C-16.59179688 45.26222656 -16.59179688 45.26222656 -16 46 C-15.98582031 44.69546875 -15.97164062 43.3909375 -15.95703125 42.046875 C-15.62723653 27.39135891 -12.83784395 16.929872 -4 5 C-3.2575 3.989375 -2.515 2.97875 -1.75 1.9375 C-1.1725 1.298125 -0.595 0.65875 0 0 Z M1 31 C-5.76495511 40.14972346 -9.15513228 50.57526708 -8 62 C-5.42012111 76.62605437 -5.42012111 76.62605437 2 89 C3.15201097 85.93978855 4.29549903 82.87645956 5.4375 79.8125 C5.76298828 78.94818359 6.08847656 78.08386719 6.42382812 77.19335938 C6.73642578 76.35224609 7.04902344 75.51113281 7.37109375 74.64453125 C7.8031311 73.48981323 7.8031311 73.48981323 8.24389648 72.31176758 C11.87920249 61.19691043 10.93608215 49.47249861 6 39 C5.42765625 37.78570312 5.42765625 37.78570312 4.84375 36.546875 C3.93022938 34.68068289 2.97057735 32.83716427 2 31 C1.67 31 1.34 31 1 31 Z " fill="#BBBAF2" transform="translate(248,88)"/>
<path d="M0 0 C6.18053762 0.32529145 11.52318503 3.35904474 17 6 C17 6.66 17 7.32 17 8 C18.65 8.66 20.3 9.32 22 10 C22 10.66 22 11.32 22 12 C22.59296875 12.25523438 23.1859375 12.51046875 23.796875 12.7734375 C26.21224538 14.11816498 27.51211706 15.49214367 29.25 17.625 C29.77078125 18.25664062 30.2915625 18.88828125 30.828125 19.5390625 C31.40820312 20.26222656 31.40820312 20.26222656 32 21 C32.66 19.02 33.32 17.04 34 15 C34.33 15 34.66 15 35 15 C35.99 18.63 36.98 22.26 38 26 C38.66 26 39.32 26 40 26 C40.05534912 26.58378418 40.11069824 27.16756836 40.16772461 27.76904297 C40.42405552 30.47105347 40.68077613 33.17302681 40.9375 35.875 C41.06801758 37.25171875 41.06801758 37.25171875 41.20117188 38.65625 C41.33168945 40.02910156 41.33168945 40.02910156 41.46484375 41.4296875 C41.5510498 42.34717773 41.63725586 43.26466797 41.72607422 44.20996094 C41.91214978 46.10521186 42.11219573 47.99913251 42.32470703 49.89160156 C42.47528564 51.24850098 42.47528564 51.24850098 42.62890625 52.6328125 C42.72373291 53.4489502 42.81855957 54.26508789 42.91625977 55.10595703 C42.95771118 56.0435083 42.95771118 56.0435083 43 57 C42 58 42 58 38.92578125 58.37109375 C33.85985122 57.89222474 31.20721303 56.02249707 27.1875 53.0625 C26.48898926 52.56250488 25.79047852 52.06250977 25.07080078 51.54736328 C11.31335558 41.55263813 2.15845934 32.2181155 -1 15 C-1.32732932 10.30674296 -1.41881146 5.6893152 -1 1 C-0.67 0.67 -0.34 0.34 0 0 Z " fill="#A9C3F3" transform="translate(200,113)"/>
<path d="M0 0 C2.83359844 -0.05449228 5.66612485 -0.09390733 8.5 -0.125 C9.29148438 -0.14175781 10.08296875 -0.15851563 10.8984375 -0.17578125 C22.49032123 -0.27079669 34.89945383 3.66900447 44 11 C44 11.66 44 12.32 44 13 C44.72960937 13.23976562 45.45921875 13.47953125 46.2109375 13.7265625 C49.39364972 15.17973363 51.20017941 16.86685224 53.625 19.375 C54.38039062 20.14585937 55.13578125 20.91671875 55.9140625 21.7109375 C59.67315303 25.83608179 59.67315303 25.83608179 61 28 C60.505 29.485 60.505 29.485 60 31 C47.19464601 33.50539534 30.55141459 30.48272515 19.55078125 23.4296875 C14.72109354 19.77257252 9.8545025 15.69728761 6 11 C6 10.34 6 9.68 6 9 C5.34 9 4.68 9 4 9 C0 2.25 0 2.25 0 0 Z " fill="#A0C9F4" transform="translate(180,153)"/>
<path d="M0 0 C-1.77989939 9.16243664 -11.24122116 17.55811594 -18.484375 22.796875 C-26.78827755 28.00615548 -34.48256679 30.10116406 -44.125 31.25 C-44.88941406 31.34249023 -45.65382813 31.43498047 -46.44140625 31.53027344 C-51.18663406 32.02576733 -55.30709234 31.87136217 -60 31 C-60 25.63267477 -55.43338601 21.87799715 -52 18 C-46.91150442 13 -46.91150442 13 -44 13 C-44 12.34 -44 11.68 -44 11 C-29.13605897 2.45120331 -17.13820524 -0.54826012 0 0 Z " fill="#B8B7F2" transform="translate(318,153)"/>
<path d="M0 0 C11.47992942 9.6272607 11.47992942 9.6272607 15 15 C15 15.66 15 16.32 15 17 C15.66 17 16.32 17 17 17 C29.75706736 33.90966114 32.69857202 54.46849374 32.0625 74.9375 C31.37911331 91.96534284 31.37911331 91.96534284 37.5 107.625 C38.00789063 108.4396875 38.51578125 109.254375 39.0390625 110.09375 C40.59732654 112.40320905 42.19420667 114.65683051 43.8359375 116.90625 C44.33544922 117.60153809 44.83496094 118.29682617 45.34960938 119.01318359 C46.34656367 120.39341001 47.36035165 121.76167268 48.39257812 123.11572266 C51.89047702 127.95738561 52.71008817 131.02765126 52 137 C48.74516144 141.77376323 44.50199861 143.1875057 39.20703125 144.91015625 C36.91571111 145.84447991 36.91571111 145.84447991 35.6015625 147.77734375 C34.56986996 151.5892467 36.29087619 154.73057535 37.56640625 158.34375 C38 161 38 161 36.58984375 163.34375 C35.80287109 164.16359375 35.80287109 164.16359375 35 165 C34.505 162.525 34.505 162.525 34 160 C33.34 160.33 32.68 160.66 32 161 C32.20625 159.96875 32.4125 158.9375 32.625 157.875 C33.2591248 154.05817087 33.2591248 154.05817087 31.9375 150.8125 C31 148 31 148 31.5 145.75 C33.62427987 143.27167349 35.90051508 142.80856128 39 142 C39.495 139.03 39.495 139.03 40 136 C40.99 136 41.98 136 43 136 C43.99 136.99 43.99 136.99 45 138 C46.80230168 134.17010894 47.19622241 131.21878192 47 127 C43.41672247 125.99782936 43.41672247 125.99782936 40 127 C40.33 123.37 40.66 119.74 41 116 C40.01 115.67 39.02 115.34 38 115 C37.3125 112.9375 37.3125 112.9375 37 111 C35.35 110.67 33.7 110.34 32 110 C32 109.01 32 108.02 32 107 C32.66 107 33.32 107 34 107 C34 106.01 34 105.02 34 104 C33.34 104 32.68 104 32 104 C27.66385785 94.38210988 28.88997761 84.13018235 29.3125 73.875 C29.37586749 72.04171853 29.43772958 70.20838436 29.49804688 68.375 C29.64799871 63.91586931 29.81836106 59.45794776 30 55 C29.34 54.67 28.68 54.34 28 54 C26 51 26 51 26.375 48.8125 C26.58125 48.214375 26.7875 47.61625 27 47 C25.515 46.505 25.515 46.505 24 46 C23 39.375 23 39.375 23 36 C22.4304167 34.49862267 21.79854258 33.02020347 21.125 31.5625 C20.77695312 30.80066406 20.42890625 30.03882812 20.0703125 29.25390625 C19.71710938 28.51011719 19.36390625 27.76632813 19 27 C18.66742188 26.26652344 18.33484375 25.53304687 17.9921875 24.77734375 C17.12178305 22.82631212 17.12178305 22.82631212 15 22 C14.375 19.4375 14.375 19.4375 14 17 C13.01 17 12.02 17 11 17 C10.71125 16.38125 10.4225 15.7625 10.125 15.125 C9.06279958 12.86674235 9.06279958 12.86674235 7 11 C6.896875 10.34 6.79375 9.68 6.6875 9 C6.460625 8.34 6.23375 7.68 6 7 C5.175 6.690625 4.35 6.38125 3.5 6.0625 C2.675 5.711875 1.85 5.36125 1 5 C0.1875 2.375 0.1875 2.375 0 0 Z " fill="#CBB6E9" transform="translate(321,65)"/>
<path d="M0 0 C2.10546875 1.4921875 2.10546875 1.4921875 2.97265625 4.0625 C3.13494999 8.25349716 2.76428947 12.21447824 2.23046875 16.3671875 C2.13894531 17.13160156 2.04742187 17.89601563 1.953125 18.68359375 C1.21049213 24.84430869 1.21049213 24.84430869 0.74121094 27.73925781 C-0.04175107 32.36847731 -0.04175107 32.36847731 2.10546875 36.4921875 C1.77546875 37.4821875 1.44546875 38.4721875 1.10546875 39.4921875 C1.06671954 41.15840366 1.06044015 42.82612922 1.10546875 44.4921875 C2.05421875 43.9971875 3.00296875 43.5021875 3.98046875 42.9921875 C7.10546875 41.4921875 7.10546875 41.4921875 9.10546875 41.4921875 C9.10546875 42.1521875 9.10546875 42.8121875 9.10546875 43.4921875 C9.68554688 43.48058594 10.265625 43.46898437 10.86328125 43.45703125 C15.40529335 43.40456576 19.63260444 43.57467687 24.10546875 44.4921875 C24.60046875 43.5021875 24.60046875 43.5021875 25.10546875 42.4921875 C25.76546875 42.4921875 26.42546875 42.4921875 27.10546875 42.4921875 C27.03328125 43.20246094 26.96109375 43.91273438 26.88671875 44.64453125 C26.7475 46.02318359 26.7475 46.02318359 26.60546875 47.4296875 C26.51265625 48.34621094 26.41984375 49.26273438 26.32421875 50.20703125 C26.16255397 51.84711232 26.16255397 51.84711232 26.10546875 53.4921875 C25.77996373 55.16040073 25.44700812 56.82718307 25.10546875 58.4921875 C24.44546875 57.8321875 23.78546875 57.1721875 23.10546875 56.4921875 C22.54859375 57.4821875 21.99171875 58.4721875 21.41796875 59.4921875 C19.80525576 62.30439164 18.16527366 65.09750821 16.48046875 67.8671875 C16.07570313 68.53492188 15.6709375 69.20265625 15.25390625 69.890625 C14.10546875 71.4921875 14.10546875 71.4921875 12.10546875 72.4921875 C11.87859375 73.6265625 11.65171875 74.7609375 11.41796875 75.9296875 C10.98484375 77.1053125 10.55171875 78.2809375 10.10546875 79.4921875 C6.60546875 80.8046875 6.60546875 80.8046875 3.10546875 81.4921875 C1.1533044 83.44435185 0.2572023 85.02418703 -0.89453125 87.4921875 C-1.88453125 87.4921875 -2.87453125 87.4921875 -3.89453125 87.4921875 C-7.94159792 89.46383536 -10.25604816 91.87648845 -12.89453125 95.4921875 C-14.89453125 93.4921875 -16.89453125 91.4921875 -18.89453125 89.4921875 C-18.06050781 89.21246094 -17.22648437 88.93273437 -16.3671875 88.64453125 C-5.82394495 84.88857657 1.14078417 80.14528046 8.10546875 71.4921875 C8.76546875 71.4921875 9.42546875 71.4921875 10.10546875 71.4921875 C10.35554688 70.95980469 10.605625 70.42742187 10.86328125 69.87890625 C12.99184942 65.78911018 15.5621263 61.96242363 18.03515625 58.07421875 C20.4667663 54.06682319 22.28539828 49.80374573 24.10546875 45.4921875 C20.81288245 45.574434 17.52196863 45.68713393 14.23046875 45.8046875 C13.31265625 45.82724609 12.39484375 45.84980469 11.44921875 45.87304688 C5.66880743 46.09693605 0.67168152 46.97976798 -4.80517578 48.86010742 C-6.89453125 49.4921875 -6.89453125 49.4921875 -9.89453125 49.4921875 C-9.18542407 46.13574685 -7.93019833 43.23775407 -6.51953125 40.1171875 C-1.4054507 27.89364816 -0.35364429 15.56899329 0.10546875 2.4921875 C-7.88130097 4.00691969 -15.29576003 6.66021302 -22.89453125 9.4921875 C-22.89453125 8.8321875 -22.89453125 8.1721875 -22.89453125 7.4921875 C-19.89453125 5.4921875 -19.89453125 5.4921875 -16.89453125 5.4921875 C-16.89453125 4.8321875 -16.89453125 4.1721875 -16.89453125 3.4921875 C-14.67168191 2.76427202 -12.44090368 2.06053742 -10.20703125 1.3671875 C-8.96566406 0.97273438 -7.72429687 0.57828125 -6.4453125 0.171875 C-2.89453125 -0.5078125 -2.89453125 -0.5078125 0 0 Z " fill="#C3B8EF" transform="translate(308.89453125,96.5078125)"/>
<path d="M0 0 C2.475 0.99 2.475 0.99 5 2 C5 2.66 5 3.32 5 4 C5.72960937 4.23976562 6.45921875 4.47953125 7.2109375 4.7265625 C10.39364972 6.17973363 12.20017941 7.86685224 14.625 10.375 C15.75808594 11.53128906 15.75808594 11.53128906 16.9140625 12.7109375 C20.67315303 16.83608179 20.67315303 16.83608179 22 19 C21.505 20.485 21.505 20.485 21 22 C9.61951261 24.2266171 -2.0738187 21.32535953 -13 18 C-12.505 16.515 -12.505 16.515 -12 15 C-10.35 15 -8.7 15 -7 15 C-7 15.33 -7 15.66 -7 16 C-3.37 16.33 0.26 16.66 4 17 C4.66 16.01 5.32 15.02 6 14 C7.32 14 8.64 14 10 14 C10 13.34 10 12.68 10 12 C9.01 12 8.02 12 7 12 C7 10.35 7 8.7 7 7 C6.34 7 5.68 7 5 7 C5 6.34 5 5.68 5 5 C3.02 4.34 1.04 3.68 -1 3 C-0.67 2.01 -0.34 1.02 0 0 Z " fill="#AAC4F0" transform="translate(219,162)"/>
<path d="M0 0 C2.1875 -0.3125 2.1875 -0.3125 5 0 C7.6875 2.375 7.6875 2.375 10 5 C10.66 5.66 11.32 6.32 12 7 C11.67 7.33 11.34 7.66 11 8 C11.45375 8.45375 11.9075 8.9075 12.375 9.375 C13.58333333 10.58333333 14.79166667 11.79166667 16 13 C16.66 13 17.32 13 18 13 C18.12375 14.093125 18.2475 15.18625 18.375 16.3125 C18.75464801 20.07381802 18.75464801 20.07381802 21 23 C21 23.99 21 24.98 21 26 C21.99 26 22.98 26 24 26 C26.125 32.75 26.125 32.75 25 35 C25.31763653 36.99896911 25.31763653 36.99896911 25.9375 39.125 C26.13214844 39.84945312 26.32679688 40.57390625 26.52734375 41.3203125 C26.68332031 41.87460938 26.83929688 42.42890625 27 43 C27.99 43 28.98 43 30 43 C30.268125 42.360625 30.53625 41.72125 30.8125 41.0625 C32 39 32 39 35 38 C37.6875 38.9375 37.6875 38.9375 40 40 C37.97416392 41.52506761 35.94347249 43.04121579 33.89453125 44.53515625 C33.20746094 45.03917969 32.52039063 45.54320312 31.8125 46.0625 C30.77029297 46.82240234 30.77029297 46.82240234 29.70703125 47.59765625 C27.87669683 48.90724076 27.87669683 48.90724076 27 51 C26.01 51 25.02 51 24 51 C23.97421875 50.20078125 23.9484375 49.4015625 23.921875 48.578125 C22.99574565 30.64489304 15.62484585 17.35565623 4 4 C0.23511958 5.72154788 -2.15063897 7.99234114 -5 11 C-5.33 10.01 -5.66 9.02 -6 8 C-5.34 8 -4.68 8 -4 8 C-4.20625 7.401875 -4.4125 6.80375 -4.625 6.1875 C-5 4 -5 4 -3 1 C-2.01 1.33 -1.02 1.66 0 2 C0 1.34 0 0.68 0 0 Z " fill="#C8C1ED" transform="translate(246,66)"/>
<path d="M0 0 C0 0.66 0 1.32 0 2 C0.763125 2.28875 1.52625 2.5775 2.3125 2.875 C5 4 5 4 8 6 C7.67 6.66 7.34 7.32 7 8 C-0.16216216 6.24324324 -0.16216216 6.24324324 -3 3 C-4.3153341 2.29848848 -5.65117592 1.63474075 -7 1 C-9.75 -0.5 -9.75 -0.5 -12 -2 C-12 -2.66 -12 -3.32 -12 -4 C-13.32 -3.67 -14.64 -3.34 -16 -3 C-16 -3.66 -16 -4.32 -16 -5 C-16.99 -5 -17.98 -5 -19 -5 C-19 -5.66 -19 -6.32 -19 -7 C-20.65 -7 -22.3 -7 -24 -7 C-24 -7.66 -24 -8.32 -24 -9 C-29.16552673 -9.66960532 -34.31400299 -10.22091498 -39.5078125 -10.62109375 C-42 -11 -42 -11 -44.5390625 -12.0234375 C-49.75331886 -13.4947288 -54.86136303 -13.24829816 -60.25 -13.1875 C-61.35085937 -13.18685547 -62.45171875 -13.18621094 -63.5859375 -13.18554688 C-68.96269984 -13.40392907 -68.96269984 -13.40392907 -74 -12 C-79.8672338 -10.90445842 -85.13179733 -11.03974865 -91 -12 C-65.14378135 -26.34447561 -23.85668574 -12.96392247 0 0 Z " fill="#D2C8EE" transform="translate(312,57)"/>
<path d="M0 0 C5.16084785 1.67046182 7.02612426 4.05213546 9.8203125 8.5546875 C11.71813409 12.48858258 11.79210501 14.6794272 11 19 C7.74516144 23.77376323 3.50199861 25.1875057 -1.79296875 26.91015625 C-4.08428889 27.84447991 -4.08428889 27.84447991 -5.3984375 29.77734375 C-6.43013004 33.5892467 -4.70912381 36.73057535 -3.43359375 40.34375 C-3 43 -3 43 -4.41015625 45.34375 C-4.93480469 45.8903125 -5.45945312 46.436875 -6 47 C-6.33 45.35 -6.66 43.7 -7 42 C-7.99 42.495 -7.99 42.495 -9 43 C-8.79375 41.96875 -8.5875 40.9375 -8.375 39.875 C-7.7408752 36.05817087 -7.7408752 36.05817087 -9.0625 32.8125 C-10 30 -10 30 -9.5 27.75 C-7.37572013 25.27167349 -5.09948492 24.80856128 -2 24 C-1.67 22.02 -1.34 20.04 -1 18 C-0.01 18 0.98 18 2 18 C2.66 18.66 3.32 19.32 4 20 C5.80230168 16.17010894 6.19622241 13.21878192 6 9 C2.41672247 7.99782936 2.41672247 7.99782936 -1 9 C-0.67 6.03 -0.34 3.06 0 0 Z " fill="#C1B6EE" transform="translate(362,183)"/>
<path d="M0 0 C2 1 2 1 2.6875 2.875 C3 5 3 5 2 8 C3.65 7.34 5.3 6.68 7 6 C7.33 6.99 7.66 7.98 8 9 C7.67 9.61875 7.34 10.2375 7 10.875 C5.31197522 14.46205265 6.79816241 17.39448723 8 21 C9.12562027 23.81405068 10.10778866 25.0939696 12.4375 27.125 C15.51354198 30.57616905 16.25767535 33.46741434 17.32421875 37.890625 C17.54722656 38.58671875 17.77023438 39.2828125 18 40 C18.66 40.33 19.32 40.66 20 41 C20 41.66 20 42.32 20 43 C20.66 43 21.32 43 22 43 C22 43.66 22 44.32 22 45 C22.66 45.33 23.32 45.66 24 46 C23.67 46.33 23.34 46.66 23 47 C23.28674418 49.00720923 23.61866701 51.0085944 24 53 C20.97465777 50.30016928 18.90849778 47.01811234 16.75 43.625 C16.15892456 42.69723755 16.15892456 42.69723755 15.5559082 41.75073242 C7.42508879 28.83901091 -0.306637 15.63848702 0 0 Z " fill="#9AD7EF" transform="translate(144,159)"/>
<path d="M0 0 C0.99 0.33 1.98 0.66 3 1 C-0.28571429 5.92857143 -0.28571429 5.92857143 -2 8 C-2.66 8 -3.32 8 -4 8 C-4.11601562 8.57363281 -4.23203125 9.14726563 -4.3515625 9.73828125 C-5.054485 12.19004104 -6.03438924 14.02221049 -7.375 16.1875 C-7.79523438 16.88230469 -8.21546875 17.57710937 -8.6484375 18.29296875 C-10 20 -10 20 -13 21 C-12.87625 22.299375 -12.87625 22.299375 -12.75 23.625 C-13.05628741 27.75988007 -14.52108722 29.74642697 -17 33 C-16.34 33.33 -15.68 33.66 -15 34 C-15.42152344 34.64066406 -15.84304687 35.28132813 -16.27734375 35.94140625 C-19.56544518 41.13273816 -21.49144942 44.897393 -22 51 C-22.66 51.66 -23.32 52.32 -24 53 C-24.25715672 46.60244249 -23.69702774 41.71920015 -21.4375 35.75 C-21.169375 35.01910156 -20.90125 34.28820312 -20.625 33.53515625 C-16.8557888 23.58235432 -11.84718998 13.20390874 -5 5 C-4.34 5 -3.68 5 -3 5 C-2.690625 4.360625 -2.38125 3.72125 -2.0625 3.0625 C-1 1 -1 1 0 0 Z " fill="#A4D5ED" transform="translate(167,75)"/>
<path d="M0 0 C2.25240691 2.25240691 2.62905828 3.55198278 3.5078125 6.5703125 C3.77207031 7.46621094 4.03632813 8.36210937 4.30859375 9.28515625 C4.57800781 10.22230469 4.84742188 11.15945313 5.125 12.125 C5.40214844 13.06988281 5.67929687 14.01476562 5.96484375 14.98828125 C6.6490147 17.32389932 7.32713257 19.66110523 8 22 C4.96587012 23.51706494 3.09363151 22.28825065 -0.0625 21.25 C-1.14660156 20.90453125 -2.23070312 20.5590625 -3.34765625 20.203125 C-4.22292969 19.80609375 -5.09820312 19.4090625 -6 19 C-7 16 -7 16 -5.6875 13.125 C-5.130625 12.09375 -4.57375 11.0625 -4 10 C-2.06730717 6.1209106 -2.06730717 6.1209106 -3 2 C-2.01 2 -1.02 2 0 2 C0 1.34 0 0.68 0 0 Z " fill="#97BBEC" transform="translate(275,327)"/>
<path d="M0 0 C0.66 0 1.32 0 2 0 C3.65 4.62 5.3 9.24 7 14 C7.66 14 8.32 14 9 14 C9.66 13.34 10.32 12.68 11 12 C11.33 12.66 11.66 13.32 12 14 C13.98 14 15.96 14 18 14 C17.67 14.66 17.34 15.32 17 16 C16.34 16 15.68 16 15 16 C15 16.66 15 17.32 15 18 C12.75579971 20.24420029 11.26725018 20.95352171 8.125 21.5 C3.75532311 20.8008517 2.11211931 19.11211931 -1 16 C-1 15.34 -1 14.68 -1 14 C-3.475 13.01 -3.475 13.01 -6 12 C-6 11.67 -6 11.34 -6 11 C-2.535 10.505 -2.535 10.505 1 10 C0.67 6.7 0.34 3.4 0 0 Z " fill="#B4C4EE" transform="translate(241,160)"/>
<path d="M0 0 C2.10546875 1.4921875 2.10546875 1.4921875 2.96875 4.078125 C3.13299918 8.17966173 2.80635513 12.05144299 2.29296875 16.1171875 C2.15084961 17.30054688 2.15084961 17.30054688 2.00585938 18.5078125 C-0.24918393 36.84684018 -0.24918393 36.84684018 -2.89453125 39.4921875 C-3.55453125 39.1621875 -4.21453125 38.8321875 -4.89453125 38.4921875 C-4.47880859 36.73068359 -4.47880859 36.73068359 -4.0546875 34.93359375 C-1.58087966 24.07266949 -0.17961738 13.62480104 0.10546875 2.4921875 C-7.88130097 4.00691969 -15.29576003 6.66021302 -22.89453125 9.4921875 C-22.89453125 8.8321875 -22.89453125 8.1721875 -22.89453125 7.4921875 C-19.89453125 5.4921875 -19.89453125 5.4921875 -16.89453125 5.4921875 C-16.89453125 4.8321875 -16.89453125 4.1721875 -16.89453125 3.4921875 C-14.67168191 2.76427202 -12.44090368 2.06053742 -10.20703125 1.3671875 C-8.96566406 0.97273438 -7.72429687 0.57828125 -6.4453125 0.171875 C-2.89453125 -0.5078125 -2.89453125 -0.5078125 0 0 Z " fill="#CDBEEA" transform="translate(308.89453125,96.5078125)"/>
<path d="M0 0 C0 0.66 0 1.32 0 2 C-0.66 2 -1.32 2 -2 2 C-1.5875 3.175625 -1.175 4.35125 -0.75 5.5625 C0.170977 9.10132259 -0.02711905 10.84051124 -1.875 14 C-2.57625 14.99 -3.2775 15.98 -4 17 C-4.66 17 -5.32 17 -6 17 C-7.02504127 20.33734367 -7.0410935 23.2728615 -6.9375 26.75 C-6.89962125 31.90782322 -7.25621389 36.13575452 -9 41 C-10.485 41.495 -10.485 41.495 -12 42 C-11.75443359 41.02933594 -11.75443359 41.02933594 -11.50390625 40.0390625 C-10.85462788 36.12325963 -10.89356924 32.33552653 -10.9375 28.375 C-10.94426758 27.2303125 -10.94426758 27.2303125 -10.95117188 26.0625 C-10.96358067 24.04163922 -10.9814793 22.02081401 -11 20 C-11 18.33333333 -11 16.66666667 -11 15 C-10.21625 14.87625 -9.4325 14.7525 -8.625 14.625 C-5.85942178 14.20882007 -5.85942178 14.20882007 -4 12 C-3.76957501 8.46681687 -3.95815745 5.38598829 -5 2 C-2 0 -2 0 0 0 Z " fill="#BCBCED" transform="translate(355,230)"/>
<path d="M0 0 C13.47508173 0.06478405 26.34987368 6.77777344 38 13 C38 13.66 38 14.32 38 15 C38.763125 15.28875 39.52625 15.5775 40.3125 15.875 C43 17 43 17 46 19 C45.67 19.66 45.34 20.32 45 21 C37.83783784 19.24324324 37.83783784 19.24324324 35 16 C33.6846659 15.29848848 32.34882408 14.63474075 31 14 C28.25 12.5 28.25 12.5 26 11 C26 10.34 26 9.68 26 9 C24.68 9.33 23.36 9.66 22 10 C22 9.34 22 8.68 22 8 C21.01 8 20.02 8 19 8 C19 7.34 19 6.68 19 6 C17.35 6 15.7 6 14 6 C14 5.34 14 4.68 14 4 C12.80375 3.87625 11.6075 3.7525 10.375 3.625 C6.72403187 3.17674946 3.45475101 2.29553163 0 1 C0 0.67 0 0.34 0 0 Z " fill="#D0BBEA" transform="translate(274,44)"/>
<path d="M0 0 C11.47992942 9.6272607 11.47992942 9.6272607 15 15 C15 15.66 15 16.32 15 17 C15.66 17 16.32 17 17 17 C21.32091271 22.76522894 24.09763742 29.09142011 26 36 C22.49716756 33.74924384 21.07830607 31.64425151 19.375 27.875 C17.93826362 24.23269364 17.93826362 24.23269364 15 22 C14.375 19.4375 14.375 19.4375 14 17 C13.01 17 12.02 17 11 17 C10.71125 16.38125 10.4225 15.7625 10.125 15.125 C9.06279958 12.86674235 9.06279958 12.86674235 7 11 C6.896875 10.34 6.79375 9.68 6.6875 9 C6.460625 8.34 6.23375 7.68 6 7 C5.175 6.690625 4.35 6.38125 3.5 6.0625 C2.675 5.711875 1.85 5.36125 1 5 C0.1875 2.375 0.1875 2.375 0 0 Z " fill="#D4BDEB" transform="translate(321,65)"/>
<path d="M0 0 C0.66 0 1.32 0 2 0 C2.05399736 1.45792884 2.09279177 2.91642712 2.125 4.375 C2.14820313 5.18710937 2.17140625 5.99921875 2.1953125 6.8359375 C2 9 2 9 0 11 C0.99 12.485 0.99 12.485 2 14 C1.360625 14.309375 0.72125 14.61875 0.0625 14.9375 C-1.93610821 15.8345163 -1.93610821 15.8345163 -3 17 C-4.99958364 17.04080783 -7.00045254 17.04254356 -9 17 C-8.43310319 12.6852854 -6.88294703 9.86348525 -4.5 6.25 C-3.55640625 4.80367188 -3.55640625 4.80367188 -2.59375 3.328125 C-1 1 -1 1 0 0 Z " fill="#8FC8EF" transform="translate(166,303)"/>
<path d="M0 0 C4.8403477 4.53782597 9.14689594 9.59800548 13 15 C13 15.66 13 16.32 13 17 C13.66 17 14.32 17 15 17 C14.67 17.66 14.34 18.32 14 19 C10.34683329 17.75023244 9.21934164 17.32901247 7 14 C6.01 14 5.02 14 4 14 C3.01 14 2.02 14 1 14 C1.01740234 13.11248047 1.01740234 13.11248047 1.03515625 12.20703125 C1.08322386 7.99768215 1.06006883 4.1077667 0 0 Z " fill="#A7D6E9" transform="translate(168,154)"/>
<path d="M0 0 C3.96 0 7.92 0 12 0 C11.06909971 3.72360115 10.3654394 5.19347979 8.125 8.125 C7.35542969 9.14980469 7.35542969 9.14980469 6.5703125 10.1953125 C5 12 5 12 2 14 C1.01 13.01 0.02 12.02 -1 11 C-0.34 11 0.32 11 1 11 C1.33 9.02 1.66 7.04 2 5 C3.32 5 4.64 5 6 5 C6 4.34 6 3.68 6 3 C4.02 2.34 2.04 1.68 0 1 C0 0.67 0 0.34 0 0 Z " fill="#BFB6EF" transform="translate(306,153)"/>
<path d="M0 0 C0 3 0 3 -2.25 5.5625 C-5.60871933 8.53954668 -8.55055814 10.28234809 -13 11 C-13.99 10.67 -14.98 10.34 -16 10 C-16.33 10.99 -16.66 11.98 -17 13 C-18.32 12.67 -19.64 12.34 -21 12 C-20.01 11.67 -19.02 11.34 -18 11 C-18 10.34 -18 9.68 -18 9 C-15.70870707 7.68684387 -13.4169845 6.37444807 -11.125 5.0625 C-10.47402344 4.68931641 -9.82304687 4.31613281 -9.15234375 3.93164062 C-2.2808277 0 -2.2808277 0 0 0 Z " fill="#AFC7F3" transform="translate(200,52)"/>
<path d="M0 0 C2.45764557 2.45764557 2.84284437 3.54257615 3 7 C1.0625 10.3125 1.0625 10.3125 -1 13 C-0.01 13.66 0.98 14.32 2 15 C1.67 15.99 1.34 16.98 1 18 C-1.31 18 -3.62 18 -6 18 C-6.33 17.34 -6.66 16.68 -7 16 C-6.05439935 13.9737129 -5.04622875 11.97620986 -4 10 C-2.06730717 6.1209106 -2.06730717 6.1209106 -3 2 C-2.01 2 -1.02 2 0 2 C0 1.34 0 0.68 0 0 Z " fill="#8AB9F3" transform="translate(275,327)"/>
<path d="M0 0 C0.99 0.33 1.98 0.66 3 1 C4.38515905 1.06897344 5.77345822 1.08466993 7.16015625 1.0625 C7.95357422 1.05476562 8.74699219 1.04703125 9.56445312 1.0390625 C10.38880859 1.02617187 11.21316406 1.01328125 12.0625 1 C13.69915311 0.9745268 15.33588293 0.95348151 16.97265625 0.9375 C18.05945679 0.92009766 18.05945679 0.92009766 19.16821289 0.90234375 C21 1 21 1 23 2 C23 2.66 23 3.32 23 4 C16.4 4.33 9.8 4.66 3 5 C3.66 7.31 4.32 9.62 5 12 C4.01 12 3.02 12 2 12 C1.67 11.01 1.34 10.02 1 9 C0.67 9 0.34 9 0 9 C0 7.35 0 5.7 0 4 C-0.66 4 -1.32 4 -2 4 C-2 3.01 -2 2.02 -2 1 C-1.34 0.67 -0.68 0.34 0 0 Z " fill="#A6D1EB" transform="translate(162,138)"/>
<path d="M0 0 C6.55283772 8.02182552 11.67934682 15.81122748 14 26 C13.01 25.67 12.02 25.34 11 25 C10.3125 22.9375 10.3125 22.9375 10 21 C8.68 21 7.36 21 6 21 C6.66 20.67 7.32 20.34 8 20 C7.59186904 17.63284044 7.32646529 16.31227115 5.5625 14.625 C3.38620581 12.36165404 2.86989812 9.98250785 2 7 C1.67 6.01 1.34 5.02 1 4 C0.01 3.67 -0.98 3.34 -2 3 C-1 1 -1 1 0 0 Z " fill="#C6C2ED" transform="translate(251,90)"/>
<path d="M0 0 C0.66 0.33 1.32 0.66 2 1 C2.05864392 4.66659815 2.09381108 8.33307364 2.125 12 C2.14175781 13.02996094 2.15851563 14.05992187 2.17578125 15.12109375 C2.21401983 21.12455155 1.75493524 26.2515507 0 32 C-0.33 32 -0.66 32 -1 32 C-1.33 21.77 -1.66 11.54 -2 1 C-1.34 0.67 -0.68 0.34 0 0 Z " fill="#8CCBE9" transform="translate(182,233)"/>
<path d="M0 0 C1.18224668 3.54674003 0.89329634 5.97522995 0.5625 9.6875 C0.46066406 10.86699219 0.35882813 12.04648438 0.25390625 13.26171875 C0.17011719 14.16535156 0.08632812 15.06898437 0 16 C-3 16 -3 16 -5.375 13.75 C-6.24125 12.8425 -7.1075 11.935 -8 11 C-11.7816063 7.61645752 -15.32839219 5.83200306 -20 4 C-15.58980132 2.52993377 -12.30611969 3.56462677 -8 5 C-8 5.99 -8 6.98 -8 8 C-7.01 8.33 -6.02 8.66 -5 9 C-4.01 9.66 -3.02 10.32 -2 11 C-1.90912109 10.06027344 -1.90912109 10.06027344 -1.81640625 9.1015625 C-1.73261719 8.28429687 -1.64882812 7.46703125 -1.5625 6.625 C-1.48128906 5.81289062 -1.40007812 5.00078125 -1.31640625 4.1640625 C-1 2 -1 2 0 0 Z " fill="#C1CBED" transform="translate(228,101)"/>
<path d="M0 0 C3.00221784 4.50332676 4.31896025 8.57767579 4 14 C3.34 14 2.68 14 2 14 C1.67 13.34 1.34 12.68 1 12 C0.319375 13.2065625 0.319375 13.2065625 -0.375 14.4375 C-2 17 -2 17 -4 18 C-3.41632611 11.69632197 -1.95928381 6.01339937 0 0 Z " fill="#8DCFF0" transform="translate(180,266)"/>
<path d="M0 0 C0.66 0 1.32 0 2 0 C2 7.92 2 15.84 2 24 C1.01 23.67 0.02 23.34 -1 23 C-1.02887512 19.35418313 -1.04675585 15.70839537 -1.0625 12.0625 C-1.07087891 11.02158203 -1.07925781 9.98066406 -1.08789062 8.90820312 C-1.09272461 7.42416992 -1.09272461 7.42416992 -1.09765625 5.91015625 C-1.10289307 4.99371338 -1.10812988 4.07727051 -1.11352539 3.13305664 C-1 1 -1 1 0 0 Z " fill="#9DD7EE" transform="translate(142,129)"/>
<path d="M0 0 C0.66 0 1.32 0 2 0 C2.66 1.32 3.32 2.64 4 4 C4.99 3.01 5.98 2.02 7 1 C7.33 1.66 7.66 2.32 8 3 C9.98 3 11.96 3 14 3 C13.67 3.66 13.34 4.32 13 5 C12.34 5 11.68 5 11 5 C11 5.66 11 6.32 11 7 C8.52653696 9.47346304 7.29238832 9.98313144 3.75 10.1875 C2.8425 10.125625 1.935 10.06375 1 10 C0.67 8.68 0.34 7.36 0 6 C0.66 5.67 1.32 5.34 2 5 C1.34 4.67 0.68 4.34 0 4 C0 2.68 0 1.36 0 0 Z " fill="#C0CAED" transform="translate(245,171)"/>
<path d="M0 0 C4.56634899 -0.07739575 8.52878478 0.05869153 13 1 C14.9996441 1.03772913 17.00054061 1.04649906 19 1 C19 1.66 19 2.32 19 3 C19.66 3.33 20.32 3.66 21 4 C20 5 20 5 17.1875 5.25 C11.69097978 5.18115006 6.17697239 3.78009461 1 2 C0.67 1.34 0.34 0.68 0 0 Z " fill="#8BCAF1" transform="translate(205,321)"/>
<path d="M0 0 C1.65 0 3.3 0 5 0 C4.62488281 0.57105469 4.24976563 1.14210938 3.86328125 1.73046875 C-0.41528575 8.50935702 -3.32770941 15.45610003 -6 23 C-6.66 22.34 -7.32 21.68 -8 21 C-7.75704021 15.77636459 -5.68742135 12.33455057 -3 8 C-2.34 8 -1.68 8 -1 8 C-0.67 5.36 -0.34 2.72 0 0 Z " fill="#C3C7ED" transform="translate(236,78)"/>
<path d="M0 0 C0.99 0.33 1.98 0.66 3 1 C3.87442387 8.08992326 4.55649505 14.22528813 2 21 C1.01 21.33 0.02 21.66 -1 22 C-0.83628906 21.35675781 -0.67257812 20.71351563 -0.50390625 20.05078125 C0.15334676 16.07159829 0.106353 12.2118563 0.0625 8.1875 C0.05798828 7.39923828 0.05347656 6.61097656 0.04882812 5.79882812 C0.03711312 3.86585239 0.01917998 1.93291607 0 0 Z " fill="#B4B8E3" transform="translate(344,250)"/>
<path d="M0 0 C-0.33 2.64 -0.66 5.28 -1 8 C-3.475 7.01 -3.475 7.01 -6 6 C-6 5.34 -6 4.68 -6 4 C-6.66 4 -7.32 4 -8 4 C-8 2.68 -8 1.36 -8 0 C-5.13822943 -1.43088528 -3.06624227 -0.59991697 0 0 Z " fill="#96CDF2" transform="translate(191,155)"/>
<path d="M0 0 C0.99 0 1.98 0 3 0 C2.41196203 3.02419525 1.77321882 6.01758453 1 9 C0.34 9 -0.32 9 -1 9 C-1.33 9.66 -1.66 10.32 -2 11 C-1.125 5.25 -1.125 5.25 0 3 C-5.61 3 -11.22 3 -17 3 C-16.67 2.34 -16.34 1.68 -16 1 C-10.55306686 0.90311779 -5.36095333 0.87137825 0 2 C0 1.34 0 0.68 0 0 Z " fill="#C2B0E9" transform="translate(333,139)"/>
<path d="M0 0 C3 0 3 0 4.6875 1.375 C6 3 6 3 6 5 C6.66 5 7.32 5 8 5 C8 5.66 8 6.32 8 7 C8.66 7.33 9.32 7.66 10 8 C9.67 8.33 9.34 8.66 9 9 C9.28674418 11.00720923 9.61866701 13.0085944 10 15 C7.37907884 12.55649504 5.36975964 9.86596812 3.3125 6.9375 C2.68988281 6.05964844 2.06726563 5.18179688 1.42578125 4.27734375 C0 2 0 2 0 0 Z " fill="#A8DBEF" transform="translate(158,197)"/>
<path d="M0 0 C2.83359844 -0.05449228 5.66612485 -0.09390733 8.5 -0.125 C9.29148438 -0.14175781 10.08296875 -0.15851563 10.8984375 -0.17578125 C16.27998079 -0.21989226 20.82999927 0.49405942 26 2 C26 2.33 26 2.66 26 3 C19.59641256 3.12556054 19.59641256 3.12556054 16.625 2.5 C13.75131713 1.95263183 11.1099601 1.90228964 8.1875 1.9375 C7.21167969 1.94652344 6.23585937 1.95554688 5.23046875 1.96484375 C4.49441406 1.97644531 3.75835937 1.98804688 3 2 C2.67 3.32 2.34 4.64 2 6 C1.34 4.02 0.68 2.04 0 0 Z " fill="#B2CFE6" transform="translate(180,153)"/>
<path d="M0 0 C0.66 0.66 1.32 1.32 2 2 C1.625 5.625 1.625 5.625 1 9 C-0.32 9 -1.64 9 -3 9 C-2.67 10.98 -2.34 12.96 -2 15 C-2.33 14.34 -2.66 13.68 -3 13 C-3.66 13 -4.32 13 -5 13 C-4.74379316 11.3934324 -4.46944129 9.7897517 -4.1875 8.1875 C-4.03667969 7.29417969 -3.88585937 6.40085937 -3.73046875 5.48046875 C-2.94604607 2.81678744 -2.11372201 1.74309678 0 0 Z " fill="#90CEF1" transform="translate(174,288)"/>
<path d="M0 0 C-1.03312362 6.6613344 -3.08580266 11.51713579 -7 17 C-7.58984375 15.15234375 -7.58984375 15.15234375 -8 13 C-7.0126546 11.32580562 -6.01187895 9.65948148 -5 8 C-5 7.13375 -5 6.2675 -5 5.375 C-5 3 -5 3 -3.625 1.1875 C-2 0 -2 0 0 0 Z " fill="#C9C0EC" transform="translate(297,132)"/>
<path d="M0 0 C0.66 0.66 1.32 1.32 2 2 C-3.80489719 4.90244859 -10.81786177 4.01162262 -17 3 C-11.69850773 -0.05855323 -6.02123412 -0.34737889 0 0 Z " fill="#C7C4F1" transform="translate(238,42)"/>
<path d="M0 0 C0.33 0 0.66 0 1 0 C1.19335938 0.79664062 1.38671875 1.59328125 1.5859375 2.4140625 C3.51794536 10.2865704 3.51794536 10.2865704 6 18 C3 17 3 17 1.8125 15.1875 C1 13 1 13 1 9 C0.34 9 -0.32 9 -1 9 C-1.625 5.625 -1.625 5.625 -2 2 C-1.34 1.34 -0.68 0.68 0 0 Z " fill="#B1D1EF" transform="translate(190,121)"/>
<path d="M0 0 C-0.33 0.99 -0.66 1.98 -1 3 C-3.4375 2.625 -3.4375 2.625 -6 2 C-6.33 1.34 -6.66 0.68 -7 0 C-9.58605332 -0.4683265 -9.58605332 -0.4683265 -12.5625 -0.625 C-14.08037109 -0.73714844 -14.08037109 -0.73714844 -15.62890625 -0.8515625 C-16.80259766 -0.92503906 -16.80259766 -0.92503906 -18 -1 C-18 -1.33 -18 -1.66 -18 -2 C-10.69879068 -3.35836453 -6.66536791 -3.13664372 0 0 Z " fill="#C7BDF2" transform="translate(313,156)"/>
<path d="M0 0 C3.96 0 7.92 0 12 0 C11 4 11 4 10 6 C9.34 6 8.68 6 8 6 C7.34 5.01 6.68 4.02 6 3 C2.94570927 1.78715124 2.94570927 1.78715124 0 1 C0 0.67 0 0.34 0 0 Z " fill="#BEB3E0" transform="translate(306,153)"/>
<path d="M0 0 C0.99 0.33 1.98 0.66 3 1 C2.67 1.99 2.34 2.98 2 4 C2.495 4.99 2.99 5.98 3.5 7 C3.995 7.99 4.49 8.98 5 10 C4.67 10.99 4.34 11.98 4 13 C2 12 2 12 1 9 C0.67 9 0.34 9 0 9 C0 7.35 0 5.7 0 4 C-0.66 4 -1.32 4 -2 4 C-2 3.01 -2 2.02 -2 1 C-1.34 0.67 -0.68 0.34 0 0 Z " fill="#9BD6F3" transform="translate(162,138)"/>
<path d="M0 0 C0.66 0 1.32 0 2 0 C2.61538462 7.26153846 2.61538462 7.26153846 -0.5 11 C-1.325 11.66 -2.15 12.32 -3 13 C-3.66 12.67 -4.32 12.34 -5 12 C-4.67 10.35 -4.34 8.7 -4 7 C-2.35 7 -0.7 7 1 7 C0.67 4.69 0.34 2.38 0 0 Z " fill="#C8BEE7" transform="translate(371,194)"/>
<path d="M0 0 C0.33 0.66 0.66 1.32 1 2 C0.67 2.66 0.34 3.32 0 4 C-0.99 4 -1.98 4 -3 4 C-3.061875 4.5775 -3.12375 5.155 -3.1875 5.75 C-4.32027301 8.88690987 -6.34197595 10.09167504 -9 12 C-9.66 11.34 -10.32 10.68 -11 10 C-9.88121617 8.82737096 -8.75476949 7.66204862 -7.625 6.5 C-6.68527344 5.52546875 -6.68527344 5.52546875 -5.7265625 4.53125 C-4 3 -4 3 -2 3 C-2 2.34 -2 1.68 -2 1 C-1.34 0.67 -0.68 0.34 0 0 Z " fill="#C9C3EC" transform="translate(280,120)"/>
<path d="M0 0 C1.24546405 2.49092811 0.7767578 3.41080733 0 6 C-0.66 6 -1.32 6 -2 6 C-2.433125 7.0828125 -2.433125 7.0828125 -2.875 8.1875 C-3.91666667 10.79166667 -4.95833333 13.39583333 -6 16 C-6.66 15.67 -7.32 15.34 -8 15 C-6.51194289 9.19657726 -3.40902445 4.82409121 0 0 Z " fill="#C7CBEC" transform="translate(244,93)"/>
<path d="M0 0 C0.99 0 1.98 0 3 0 C4.6875 2.5 4.6875 2.5 6 5 C4 7 4 7 0.375 7.125 C-0.73875 7.08375 -1.8525 7.0425 -3 7 C-2.34 6.67 -1.68 6.34 -1 6 C-0.34227572 2.97065509 -0.34227572 2.97065509 0 0 Z " fill="#BCB1ED" transform="translate(361,201)"/>
<path d="M0 0 C1.485 0.99 1.485 0.99 3 2 C3.1875 5.625 3.1875 5.625 3 9 C3.99 9.33 4.98 9.66 6 10 C5.34 11.32 4.68 12.64 4 14 C3.01 14 2.02 14 1 14 C1.01740234 13.11248047 1.01740234 13.11248047 1.03515625 12.20703125 C1.08322386 7.99768215 1.06006883 4.1077667 0 0 Z " fill="#90D1F2" transform="translate(168,154)"/>
<path d="M0 0 C-1.32 0.33 -2.64 0.66 -4 1 C-4.33 2.32 -4.66 3.64 -5 5 C-9.455 3.02 -9.455 3.02 -14 1 C-14 0.67 -14 0.34 -14 0 C-9.20699867 -1.39151652 -4.84864218 -0.68662689 0 0 Z " fill="#B7C5F0" transform="translate(256,186)"/>
<path d="M0 0 C3.95820859 0.56545837 6.6659053 1.80902348 10 4 C8.8125 5.5625 8.8125 5.5625 7 7 C4.3125 6.6875 4.3125 6.6875 2 6 C2.33 5.01 2.66 4.02 3 3 C2.01 2.67 1.02 2.34 0 2 C0 1.34 0 0.68 0 0 Z " fill="#AFCBEF" transform="translate(206,156)"/>
<path d="M0 0 C0.33 0 0.66 0 1 0 C1.33 7.59 1.66 15.18 2 23 C1.01 23.33 0.02 23.66 -1 24 C-0.67 16.08 -0.34 8.16 0 0 Z " fill="#B1CDEC" transform="translate(188,98)"/>
<path d="M0 0 C3.77001757 0.40978452 5.80106814 0.86737876 9 3 C5.71303767 3.79953138 4.28976808 4.09658936 1 3 C0.67 6.96 0.34 10.92 0 15 C-0.33 15 -0.66 15 -1 15 C-1.02685412 12.68756208 -1.04632841 10.3750373 -1.0625 8.0625 C-1.07410156 6.77472656 -1.08570313 5.48695312 -1.09765625 4.16015625 C-1 1 -1 1 0 0 Z " fill="#CCDDEE" transform="translate(200,113)"/>
<path d="M0 0 C6.4 0.49230769 6.4 0.49230769 9.4375 3.0625 C10.2109375 4.0215625 10.2109375 4.0215625 11 5 C7.59068103 6.13643966 6.99664544 5.86747764 3.8125 4.5625 C3.09707031 4.27503906 2.38164062 3.98757813 1.64453125 3.69140625 C1.10183594 3.46324219 0.55914062 3.23507812 0 3 C0 2.01 0 1.02 0 0 Z " fill="#99C8EE" transform="translate(233,328)"/>
<path d="M0 0 C0.33 0 0.66 0 1 0 C1 2.64 1 5.28 1 8 C-0.66666667 8 -2.33333333 8 -4 8 C-4 6.35 -4 4.7 -4 3 C-3.01 3 -2.02 3 -1 3 C-0.67 2.01 -0.34 1.02 0 0 Z " fill="#91B7EE" transform="translate(277,287)"/>
<path d="M0 0 C0.66 0 1.32 0 2 0 C2.33 0.66 2.66 1.32 3 2 C5.52733235 2.65555119 5.52733235 2.65555119 8 3 C7.67 3.99 7.34 4.98 7 6 C4.36 6 1.72 6 -1 6 C-1.33 5.34 -1.66 4.68 -2 4 C-1.0625 1.875 -1.0625 1.875 0 0 Z " fill="#93CCF2" transform="translate(186,178)"/>
<path d="M0 0 C3.3 0 6.6 0 10 0 C10 1.65 10 3.3 10 5 C5.27635085 5 3.7011388 3.7758541 0 1 C0 0.67 0 0.34 0 0 Z " fill="#B5C8EE" transform="translate(220,160)"/>
<path d="M0 0 C0.33 0 0.66 0 1 0 C1.50471197 1.76949612 2.00360685 3.54065223 2.5 5.3125 C2.7784375 6.29863281 3.056875 7.28476563 3.34375 8.30078125 C4 11 4 11 4 14 C2.05078125 13.34765625 2.05078125 13.34765625 0 12 C-0.64453125 9.43359375 -0.64453125 9.43359375 -0.8125 6.4375 C-0.88082031 5.44621094 -0.94914063 4.45492187 -1.01953125 3.43359375 C-1 1 -1 1 0 0 Z " fill="#A9BAE6" transform="translate(234,128)"/>
<path d="M0 0 C1.32 0.99 2.64 1.98 4 3 C3.125 7.75 3.125 7.75 2 10 C1.01 10 0.02 10 -1 10 C-0.67 6.7 -0.34 3.4 0 0 Z " fill="#C2B8E9" transform="translate(271,107)"/>
<path d="M0 0 C2.63862808 1.31931404 3.1659324 2.79864544 4.5625 5.375 C4.99691406 6.16648438 5.43132812 6.95796875 5.87890625 7.7734375 C7 10 7 10 8 13 C7.01 12.67 6.02 12.34 5 12 C5 11.34 5 10.68 5 10 C4.01 9.67 3.02 9.34 2 9 C1.26953125 6.93359375 1.26953125 6.93359375 0.8125 4.4375 C0.65394531 3.61121094 0.49539063 2.78492188 0.33203125 1.93359375 C0.16767578 0.97646484 0.16767578 0.97646484 0 0 Z " fill="#CDC0EB" transform="translate(357,171)"/>
<path d="M0 0 C-1.14453125 1.48828125 -1.14453125 1.48828125 -3 3 C-5.69921875 3.29296875 -5.69921875 3.29296875 -8.6875 3.1875 C-9.68136719 3.16042969 -10.67523438 3.13335937 -11.69921875 3.10546875 C-12.45847656 3.07066406 -13.21773438 3.03585937 -14 3 C-13.67 2.34 -13.34 1.68 -13 1 C-8.65012229 -0.03568517 -4.45537928 -0.08910759 0 0 Z " fill="#A9B5E5" transform="translate(337,276)"/>
<path d="M0 0 C2.475 0.99 2.475 0.99 5 2 C5 2.66 5 3.32 5 4 C6.32 4.66 7.64 5.32 9 6 C7.68 6.33 6.36 6.66 5 7 C5 6.34 5 5.68 5 5 C3.02 4.34 1.04 3.68 -1 3 C-0.67 2.01 -0.34 1.02 0 0 Z " fill="#B3CBF0" transform="translate(219,162)"/>
<path d="M0 0 C0.33 1.98 0.66 3.96 1 6 C-0.65 6 -2.3 6 -4 6 C-4 5.34 -4 4.68 -4 4 C-4.99 3.34 -5.98 2.68 -7 2 C-2.25 0 -2.25 0 0 0 Z " fill="#81BFF3" transform="translate(247,328)"/>
<path d="M0 0 C2.475 0.99 2.475 0.99 5 2 C5 2.66 5 3.32 5 4 C1.04 4 -2.92 4 -7 4 C-7 3.67 -7 3.34 -7 3 C-5.5459375 2.5359375 -5.5459375 2.5359375 -4.0625 2.0625 C-1.15934208 1.30476658 -1.15934208 1.30476658 0 0 Z " fill="#ACC0EB" transform="translate(305,273)"/>
<path d="M0 0 C0.99 0.99 1.98 1.98 3 3 C3.66 2.34 4.32 1.68 5 1 C5.33 3.64 5.66 6.28 6 9 C5.01 9.495 5.01 9.495 4 10 C3.67 9.01 3.34 8.02 3 7 C2.34 7 1.68 7 1 7 C0.67 4.69 0.34 2.38 0 0 Z " fill="#C0CCF1" transform="translate(229,131)"/>
<path d="M0 0 C-2.90572328 2.47524576 -5.15822926 3.69670231 -9 4 C-9.66 3.34 -10.32 2.68 -11 2 C-3.57142857 -1.57142857 -3.57142857 -1.57142857 0 0 Z " fill="#C0CCEF" transform="translate(211,49)"/>
<path d="M0 0 C0.33 0 0.66 0 1 0 C1.22197585 2.10277123 1.42713637 4.20732302 1.625 6.3125 C1.74101562 7.48425781 1.85703125 8.65601563 1.9765625 9.86328125 C2 13 2 13 0 16 C-0.66 16 -1.32 16 -2 16 C-1.34 10.72 -0.68 5.44 0 0 Z " fill="#ABB2EA" transform="translate(345,256)"/>
<path d="M0 0 C1.5 1.3125 1.5 1.3125 3 3 C3 3.99 3 4.98 3 6 C-1.455 5.01 -1.455 5.01 -6 4 C-4.68 3.67 -3.36 3.34 -2 3 C-2 2.34 -2 1.68 -2 1 C-1.34 0.67 -0.68 0.34 0 0 Z " fill="#B9D5EC" transform="translate(196,140)"/>
<path d="M0 0 C-0.60990891 3.55780196 -1.5783681 6.6828589 -3 10 C-3.33 10 -3.66 10 -4 10 C-4 7.03 -4 4.06 -4 1 C-2 0 -2 0 0 0 Z " fill="#A9C3E9" transform="translate(282,282)"/>
<path d="M0 0 C0.99 0.33 1.98 0.66 3 1 C3.33 1.99 3.66 2.98 4 4 C2.02 4.33 0.04 4.66 -2 5 C-2.33 4.01 -2.66 3.02 -3 2 C-2.01 1.34 -1.02 0.68 0 0 Z " fill="#ADB8F0" transform="translate(255,170)"/>
<path d="M0 0 C0.99 0.33 1.98 0.66 3 1 C-0.28571429 5.92857143 -0.28571429 5.92857143 -2 8 C-2.66 8 -3.32 8 -4 8 C-3.50168276 4.31245243 -2.89932357 2.39509338 0 0 Z " fill="#ACD1EA" transform="translate(167,75)"/>
<path d="M0 0 C-0.61875 0.28875 -1.2375 0.5775 -1.875 0.875 C-4.13325765 1.93720042 -4.13325765 1.93720042 -6 4 C-8.475 3.01 -8.475 3.01 -11 2 C-6.98764085 -0.6749061 -4.6342454 -1.48957888 0 0 Z " fill="#C4C9EC" transform="translate(221,46)"/>
<path d="M0 0 C0.33 0 0.66 0 1 0 C1.33 2.31 1.66 4.62 2 7 C0.35 7.33 -1.3 7.66 -3 8 C-2.37240135 5.07120629 -1.41377341 2.63904371 0 0 Z " fill="#D1C4EB" transform="translate(302,138)"/>
<path d="M0 0 C0.99 0.33 1.98 0.66 3 1 C1.02 3.31 -0.96 5.62 -3 8 C-3.33 7.01 -3.66 6.02 -4 5 C-2.0625 2.3125 -2.0625 2.3125 0 0 Z " fill="#CCC7EC" transform="translate(286,149)"/>
<path d="M0 0 C0.99 1.32 1.98 2.64 3 4 C2.360625 4.103125 1.72125 4.20625 1.0625 4.3125 C0.381875 4.539375 -0.29875 4.76625 -1 5 C-1.33 5.99 -1.66 6.98 -2 8 C-2.66 7.67 -3.32 7.34 -4 7 C-2.68 4.69 -1.36 2.38 0 0 Z " fill="#A2CEEB" transform="translate(163,307)"/>
<path d="M0 0 C0.33 0.66 0.66 1.32 1 2 C0.01 2.495 0.01 2.495 -1 3 C-1.33 3.99 -1.66 4.98 -2 6 C-4.31 6 -6.62 6 -9 6 C-6.11912454 3.59927045 -3.43595166 1.52708963 0 0 Z " fill="#C8C9EF" transform="translate(283,159)"/>
<path d="M0 0 C0 3 0 3 0 3 Z M-2 3 C-1.67 3.99 -1.34 4.98 -1 6 C-0.34 6 0.32 6 1 6 C1 6.99 1 7.98 1 9 C-0.9375 8.6875 -0.9375 8.6875 -3 8 C-3.33 7.01 -3.66 6.02 -4 5 C-3.34 5 -2.68 5 -2 5 C-2 4.34 -2 3.68 -2 3 Z " fill="#99D1F9" transform="translate(167,78)"/>
<path d="M0 0 C0 0.99 0 1.98 0 3 C-0.99 3 -1.98 3 -3 3 C-3.33 3.99 -3.66 4.98 -4 6 C-5.32 5.67 -6.64 5.34 -8 5 C-7.01 4.67 -6.02 4.34 -5 4 C-5 3.34 -5 2.68 -5 2 C-2 0 -2 0 0 0 Z " fill="#BCD5EE" transform="translate(187,59)"/>
<path d="M0 0 C2.76223278 2.76223278 2.57856291 5.20706617 3 9 C2.34 9 1.68 9 1 9 C1 7.35 1 5.7 1 4 C0.34 4 -0.32 4 -1 4 C-0.67 2.68 -0.34 1.36 0 0 Z " fill="#8AD3F3" transform="translate(157,188)"/>
<path d="M0 0 C0.75 1.75 0.75 1.75 1 4 C-0.8125 6.25 -0.8125 6.25 -3 8 C-3.66 8 -4.32 8 -5 8 C-3.62845496 5.04590299 -2.01136276 2.55991624 0 0 Z " fill="#C3C6EF" transform="translate(264,173)"/>
<path d="M0 0 C0.66 0 1.32 0 2 0 C2.38922918 1.28745036 2.76098036 2.58019597 3.125 3.875 C3.33382812 4.59429687 3.54265625 5.31359375 3.7578125 6.0546875 C3.83773437 6.69664062 3.91765625 7.33859375 4 8 C3.34 8.66 2.68 9.32 2 10 C1.34 6.7 0.68 3.4 0 0 Z " fill="#B9C4EB" transform="translate(241,160)"/>
<path d="M0 0 C2.625 -0.1875 2.625 -0.1875 5 0 C5 1.32 5 2.64 5 4 C2.69 3.67 0.38 3.34 -2 3 C-1.34 2.01 -0.68 1.02 0 0 Z " fill="#84C9F8" transform="translate(187,314)"/>
<path d="M0 0 C1.32 1.32 2.64 2.64 4 4 C3.34 5.32 2.68 6.64 2 8 C0.4375 6.25 0.4375 6.25 -1 4 C-0.6875 1.75 -0.6875 1.75 0 0 Z " fill="#BACFEE" transform="translate(204,138)"/>
<path d="M0 0 C0 0.66 0 1.32 0 2 C-0.66 2 -1.32 2 -2 2 C-2 3.98 -2 5.96 -2 8 C-5 4.25 -5 4.25 -5 2 C-2 0 -2 0 0 0 Z " fill="#B6B5EA" transform="translate(355,230)"/>
<path d="M0 0 C1.485 0.99 1.485 0.99 3 2 C3 2.66 3 3.32 3 4 C3.66 4 4.32 4 5 4 C4.67 4.66 4.34 5.32 4 6 C1.525 5.01 1.525 5.01 -1 4 C-0.67 2.68 -0.34 1.36 0 0 Z " fill="#B3D9F3" transform="translate(178,167)"/>
<path d="M0 0 C0.66 0.99 1.32 1.98 2 3 C0.68 4.32 -0.64 5.64 -2 7 C-2.33 5.68 -2.66 4.36 -3 3 C-2.34 3 -1.68 3 -1 3 C-0.67 2.01 -0.34 1.02 0 0 Z " fill="#C9C2ED" transform="translate(313,157)"/>
<path d="M0 0 C0.99 0.33 1.98 0.66 3 1 C1.515 3.475 1.515 3.475 0 6 C-1.125 2.25 -1.125 2.25 0 0 Z " fill="#C4B4ED" transform="translate(326,156)"/>
<path d="M0 0 C0 0.66 0 1.32 0 2 C-0.66 2 -1.32 2 -2 2 C-2 2.66 -2 3.32 -2 4 C-4.31 4.33 -6.62 4.66 -9 5 C-7.36885863 1.73771726 -3.62038485 0 0 0 Z " fill="#C7D3F1" transform="translate(196,54)"/>
</svg>
